<?xml version="1.0" standalone="no"?><!DOCTYPE svg PUBLIC "-//W3C//DTD SVG 1.1//EN" "http://www.w3.org/Graphics/SVG/1.1/DTD/svg11.dtd"><svg t="1634018397871" class="icon" viewBox="0 0 1024 1024" version="1.1" xmlns="http://www.w3.org/2000/svg" p-id="16234" xmlns:xlink="http://www.w3.org/1999/xlink" width="200" height="200"><defs><style type="text/css"></style></defs><path d="M584.127 514.61L910.316 840.8c20.01 20.01 20.082 52.467 0 72.549-20.011 20.011-52.468 20.082-72.55 0L511.579 587.16 185.39 913.348c-20.011 20.011-52.467 20.082-72.55 0-20.01-20.011-20.081-52.467 0-72.55L439.1 514.54 112.91 188.35c-20.01-20.01-20.081-52.467 0-72.549 20.012-20.01 52.468-20.082 72.55 0l326.188 326.189 326.188-326.189c20.011-20.01 52.468-20.082 72.55 0 20.01 20.011 20.081 52.468 0 72.55L584.126 514.61z" fill="" p-id="16235"></path></svg>