<?xml version="1.0" standalone="no"?><!DOCTYPE svg PUBLIC "-//W3C//DTD SVG 1.1//EN" "http://www.w3.org/Graphics/SVG/1.1/DTD/svg11.dtd"><svg t="1634019638088" class="icon" viewBox="0 0 1024 1024" version="1.1" xmlns="http://www.w3.org/2000/svg" p-id="27279" xmlns:xlink="http://www.w3.org/1999/xlink" width="200" height="200"><defs><style type="text/css"></style></defs><path d="M454.962 540.125h-252.337c-15.525 0-28.125 12.6-28.125 28.125s12.6 28.125 28.125 28.125h186.413l-191.194 191.222 39.769 39.768 190.912-190.912-0.9 184.922c0 15.525 12.6 28.125 28.125 28.125s28.125-12.6 28.125-28.125v-253.125c0-8.325-3.46-15.046-8.887-19.688-5.092-5.173-12.179-8.437-20.027-8.437zM821.375 427.625h-186.44l191.221-191.222-39.768-39.769-190.913 190.913 0.9-184.922c0-15.525-12.6-28.125-28.125-28.125s-28.125 12.6-28.125 28.125v253.125c0 8.325 3.431 15.047 8.888 19.688 5.090 5.203 12.176 8.437 20.023 8.437h252.338c15.525 0 28.125-12.6 28.125-28.125s-12.6-28.125-28.125-28.125zM849.5 62h-675c-62.128 0-112.5 50.372-112.5 112.5v675c0 62.128 50.372 112.5 112.5 112.5h675c62.128 0 112.5-50.372 112.5-112.5v-675c0-62.128-50.372-112.5-112.5-112.5zM905.75 849.5c0 31.050-25.172 56.25-56.25 56.25h-675c-31.078 0-56.25-25.2-56.25-56.25v-675c0-31.050 25.172-56.25 56.25-56.25h675c31.078 0 56.25 25.172 56.25 56.25v675z" p-id="27280"></path></svg>