<?xml version="1.0" encoding="UTF-8"?>
<svg width="16px" height="18px" viewBox="0 0 16 18" version="1.1" xmlns="http://www.w3.org/2000/svg" xmlns:xlink="http://www.w3.org/1999/xlink">
    <title>appendix</title>
    <g id="background-management-system-3" stroke="none" stroke-width="1" fill="none" fill-rule="evenodd">
        <g id="Files-upload-video" transform="translate(-40.000000, -248.000000)" fill="#1FD5AE" fill-rule="nonzero">
            <path d="M54.6028906,250.233431 C56.4147344,252.045275 56.3921215,255.019761 54.5803499,256.952955 L54.4622756,257.074914 L47.4801772,264.057013 C46.1029963,265.434194 43.9151132,265.479162 42.5934034,264.157452 C41.3064755,262.870524 41.3152415,260.762411 42.5878863,259.381057 L42.6938427,259.270678 L49.6759411,252.28858 C50.5022496,251.462271 51.8149795,251.435291 52.6080053,252.228316 C53.3727088,252.99302 53.3749316,254.240969 52.6332152,255.070032 L52.5477418,255.160381 L47.5605286,260.147594 C47.2850925,260.42303 46.8475158,260.432024 46.5831739,260.167682 C46.3377135,259.922221 46.3279353,259.52739 46.5483204,259.251708 L46.6032617,259.190327 L51.5904749,254.203114 C51.865911,253.927678 51.8749047,253.490101 51.6105627,253.225759 C51.3651023,252.980299 50.9702712,252.97052 50.6945895,253.190906 L50.633208,253.245847 L43.6511096,260.227945 C42.8248011,261.054254 42.7978202,262.366984 43.590846,263.160009 C44.3555495,263.924713 45.6034982,263.926936 46.4325618,263.185219 L46.5229103,263.099746 L53.5050087,256.117648 C54.8821895,254.740467 54.9271577,252.552584 53.605448,251.230874 C52.31852,249.943946 50.2104069,249.952712 48.8290527,251.225357 L48.7186742,251.331313 L41.2378545,258.812133 C40.9624183,259.087569 40.5248417,259.096563 40.2604997,258.832221 C40.0150393,258.58676 40.0052612,258.191929 40.2256463,257.916247 L40.2805876,257.854866 L47.7614073,250.374046 C49.6894605,248.445993 52.7524969,248.383037 54.6028906,250.233431 Z" id="appendix"></path>
        </g>
    </g>
</svg>