<?xml version="1.0" encoding="UTF-8"?>
<svg width="20px" height="20px" viewBox="0 0 20 20" version="1.1" xmlns="http://www.w3.org/2000/svg" xmlns:xlink="http://www.w3.org/1999/xlink">
    <title>balance</title>
    <g id="background-management-system-3" stroke="none" stroke-width="1" fill="none" fill-rule="evenodd">
        <g id="home" transform="translate(-1072.000000, -20.000000)" fill="#FFFFFF">
            <path d="M1082,20 C1087.52285,20 1092,24.4771525 1092,30 C1092,35.5228475 1087.52285,40 1082,40 C1076.47715,40 1072,35.5228475 1072,30 C1072,24.4771525 1076.47715,20 1082,20 Z M1082.802,23.968 L1081.99,23.968 L1081.99,25.102 C1080.618,25.214 1080.618,25.214 1079.729,26.005 C1078.84,26.796 1078.84,26.796 1078.84,28.014 C1078.84,29.484 1078.84,29.484 1080.058,30.156 C1080.51618,30.4105455 1080.51618,30.4105455 1081.738,30.7460826 L1081.99,30.814 L1081.99,33.488 C1081.09831,33.32 1081.09831,33.32 1080.95814,32.4004734 L1080.94,32.242 L1078.84,32.242 C1078.84,33.502 1078.84,33.502 1079.701,34.244 C1080.4759,34.9118 1080.4759,34.9118 1081.71007,35.05796 L1081.99,35.084 L1081.99,36.218 L1082.802,36.218 L1082.802,35.084 C1084.202,34.972 1084.202,34.972 1085.049,34.125 C1085.896,33.278 1085.896,33.278 1085.896,32.158 C1085.896,30.716 1085.896,30.716 1084.762,30.044 C1084.27836,29.764 1084.27836,29.764 1083.05423,29.437719 L1082.802,29.372 L1082.802,26.726 C1083.222,26.852 1083.222,26.852 1083.481,27.16 C1083.6882,27.4064 1083.6882,27.4064 1083.75652,27.72448 L1083.782,27.888 L1085.84,27.888 C1085.77,26.572 1085.77,26.572 1084.965,25.879 C1084.2405,25.2553 1084.2405,25.2553 1083.06807,25.12489 L1082.802,25.102 L1082.802,23.968 Z M1082.802,31.052 C1083.866,31.458 1083.866,31.458 1083.866,32.27 C1083.866,32.732 1083.866,32.732 1083.586,33.061 C1083.306,33.39 1083.306,33.39 1082.802,33.488 L1082.802,31.052 Z M1081.99,26.698 L1081.99,29.134 C1080.884,28.756 1080.884,28.756 1080.884,27.888 C1080.884,26.939 1080.884,26.939 1081.83764,26.7263571 L1081.99,26.698 Z" id="balance"></path>
        </g>
    </g>
</svg>