<?xml version="1.0" encoding="UTF-8"?>
<svg width="20px" height="20px" viewBox="0 0 20 20" version="1.1" xmlns="http://www.w3.org/2000/svg" xmlns:xlink="http://www.w3.org/1999/xlink">
    <g id="background-management-system-3" stroke="none" stroke-width="1" fill="none" fill-rule="evenodd">
        <g id="Files-details" transform="translate(-980.000000, -227.000000)" fill="#FFFFFF" fill-rule="nonzero">
            <g id="group-13" transform="translate(420.000000, 207.000000)">
                <path d="M570,20 C575.522847,20 580,24.4771525 580,30 C580,35.5228475 575.522847,40 570,40 C564.477153,40 560,35.5228475 560,30 C560,24.4771525 564.477153,20 570,20 Z M570,22 C565.581722,22 562,25.581722 562,30 C562,34.418278 565.581722,38 570,38 C574.418278,38 578,34.418278 578,30 C578,25.581722 574.418278,22 570,22 Z M567.612899,26.2097046 L567.707107,26.2928932 L570,28.585 L572.292893,26.2928932 L572.387101,26.2097046 C572.779392,25.9046797 573.346623,25.9324093 573.707107,26.2928932 C574.067591,26.6533772 574.09532,27.2206082 573.790295,27.6128994 L573.707107,27.7071068 L571.415,30 L573.707107,32.2928932 C574.097631,32.6834175 574.097631,33.3165825 573.707107,33.7071068 C573.346623,34.0675907 572.779392,34.0953203 572.387101,33.7902954 L572.292893,33.7071068 L570,31.415 L567.707107,33.7071068 L567.612899,33.7902954 C567.220608,34.0953203 566.653377,34.0675907 566.292893,33.7071068 C565.932409,33.3466228 565.90468,32.7793918 566.209705,32.3871006 L566.292893,32.2928932 L568.585,30 L566.292893,27.7071068 C565.902369,27.3165825 565.902369,26.6834175 566.292893,26.2928932 C566.653377,25.9324093 567.220608,25.9046797 567.612899,26.2097046 Z" id="closure"></path>
            </g>
        </g>
    </g>
</svg>