<?xml version="1.0" encoding="UTF-8"?>
<svg width="20px" height="20px" viewBox="0 0 20 20" version="1.1" xmlns="http://www.w3.org/2000/svg" xmlns:xlink="http://www.w3.org/1999/xlink">
    <title>delete</title>
    <g id="background-management-system-3" stroke="none" stroke-width="1" fill="none" fill-rule="evenodd">
        <g id="Files" transform="translate(-1288.000000, -350.000000)" stroke="#B82F2F">
            <path d="M1307.5,354.5 L1307.5,355.5 L1306.30861,355.5 L1304.55861,369.5 L1291.44139,369.5 L1289.69139,355.5 L1288.5,355.5 L1288.5,354.5 L1307.5,354.5 Z M1305.30039,355.5 L1290.69861,355.5 L1292.32361,368.5 L1303.67539,368.5 L1305.30039,355.5 Z M1296.5,359.5 L1296.5,364.5 L1295.5,364.5 L1295.5,359.5 L1296.5,359.5 Z M1300.5,359.5 L1300.5,364.5 L1299.5,364.5 L1299.5,359.5 L1300.5,359.5 Z M1301.5,350.5 L1301.5,351.5 L1294.5,351.5 L1294.5,350.5 L1301.5,350.5 Z" id="delete"></path>
        </g>
    </g>
</svg>