<?xml version="1.0" standalone="no"?><!DOCTYPE svg PUBLIC "-//W3C//DTD SVG 1.1//EN" "http://www.w3.org/Graphics/SVG/1.1/DTD/svg11.dtd"><svg t="1659582502627" class="icon" viewBox="0 0 1024 1024" version="1.1" xmlns="http://www.w3.org/2000/svg" p-id="938" xmlns:xlink="http://www.w3.org/1999/xlink" width="16" height="16"><defs><style type="text/css">@font-face { font-family: feedback-iconfont; src: url("//at.alicdn.com/t/font_1031158_u69w8yhxdu.woff2?t=1630033759944") format("woff2"), url("//at.alicdn.com/t/font_1031158_u69w8yhxdu.woff?t=1630033759944") format("woff"), url("//at.alicdn.com/t/font_1031158_u69w8yhxdu.ttf?t=1630033759944") format("truetype"); }
</style></defs><path d="M960 876.032l-0.384 8.064A84.032 84.032 0 0 1 876.032 960H148.032l-8.128-0.384A84.032 84.032 0 0 1 64 876.032V148.032l0.384-8.128A84.032 84.032 0 0 1 148.032 64h172.096l6.528 0.384c27.84 3.2 49.472 26.88 49.472 55.616l-0.384 6.528a56 56 0 0 1-55.616 49.472H176v672h672v-113.984l0.384-6.528a56 56 0 0 1 111.616 6.528v142.016z m-10.368-420.864a56 56 0 1 1-112-0.064V254.08L425.536 666.24a56 56 0 0 1-79.168-79.232l411.84-411.84H557.696a56 56 0 0 1-0.064-112h336a56 56 0 0 1 56 56z" p-id="939" fill="#1FD5AE"></path></svg>