<?xml version="1.0" encoding="UTF-8"?>
<svg width="20px" height="20px" viewBox="0 0 20 20" version="1.1" xmlns="http://www.w3.org/2000/svg" xmlns:xlink="http://www.w3.org/1999/xlink">
    <title>files</title>
    <g id="background-management-system-3" stroke="none" stroke-width="1" fill="none" fill-rule="evenodd">
        <g id="home" transform="translate(-1020.000000, -297.000000)" fill="#FFFFFF" fill-rule="nonzero">
            <g id="group-5" transform="translate(1008.000000, 285.000000)">
                <path d="M25,12 C26.6568542,12 28,13.3431458 28,15 L29,15 C30.6568542,15 32,16.3431458 32,18 L32,29 C32,30.6568542 30.6568542,32 29,32 L15,32 C13.3431458,32 12,30.6568542 12,29 L12,15 C12,13.3431458 13.3431458,12 15,12 L25,12 Z M29,30 C29.5128358,30 29.9355072,29.6139598 29.9932723,29.1166211 L30,29 L30,18 C30,17.4871642 29.6139598,17.0644928 29.1166211,17.0067277 L29,17 L28,17 L28,28 L26,28 L26,15 C26,14.5266131 25.6710663,14.1300527 25.2292908,14.0264107 L25.1166211,14.0067277 L25,14 L15,14 C14.4871642,14 14.0644928,14.3860402 14.0067277,14.8833789 L14,15 L14,29 C14,29.5128358 14.3860402,29.9355072 14.8833789,29.9932723 L15,30 L29,30 Z M20,24 L20,26 L16,26 L16,24 L20,24 Z M24,18 L24,20 L16,20 L16,18 L24,18 Z" id="files"></path>
            </g>
        </g>
    </g>
</svg>