<?xml version="1.0" standalone="no"?><!DOCTYPE svg PUBLIC "-//W3C//DTD SVG 1.1//EN" "http://www.w3.org/Graphics/SVG/1.1/DTD/svg11.dtd"><svg t="1660275800110" class="icon" viewBox="0 0 1024 1024" version="1.1" xmlns="http://www.w3.org/2000/svg" p-id="1235" xmlns:xlink="http://www.w3.org/1999/xlink" width="16" height="16"><defs><style type="text/css">@font-face { font-family: feedback-iconfont; src: url("//at.alicdn.com/t/font_1031158_u69w8yhxdu.woff2?t=1630033759944") format("woff2"), url("//at.alicdn.com/t/font_1031158_u69w8yhxdu.woff?t=1630033759944") format("woff"), url("//at.alicdn.com/t/font_1031158_u69w8yhxdu.ttf?t=1630033759944") format("truetype"); }
</style></defs><path d="M947.2 358.4c-8.533333-6.4-19.2-8.533333-29.866667-4.266667l-157.866666 53.333334c-17.066667 6.4-25.6 23.466667-19.2 40.533333 6.4 17.066667 23.466667 25.6 40.533333 19.2l115.2-38.4V810.666667l-245.333333 83.2L384 804.266667h-4.266667-2.133333-2.133333-2.133334H366.933333L128 883.2V501.333333l74.666667-23.466666c17.066667-6.4 25.6-23.466667 21.333333-40.533334-6.4-17.066667-23.466667-25.6-40.533333-21.333333L85.333333 448c-12.8 4.266667-21.333333 17.066667-21.333333 29.866667v450.133333c0 10.666667 4.266667 19.2 12.8 25.6 6.4 4.266667 12.8 6.4 19.2 6.4 4.266667 0 6.4 0 10.666667-2.133333l266.666666-91.733334L640 957.866667c2.133333 0 6.4 2.133333 10.666667 2.133333s6.4 0 10.666666-2.133333l277.333334-93.866667c12.8-4.266667 21.333333-17.066667 21.333333-29.866667V384c0-10.666667-4.266667-19.2-12.8-25.6z" fill="#1FD5AE" p-id="1236"></path><path d="M183.466667 74.666667c100.266667 27.733333 174.933333 110.933333 187.733333 204.8H256c-12.8 0-23.466667 6.4-27.733333 17.066666-6.4 10.666667-4.266667 23.466667 2.133333 34.133334l234.666667 320c6.4 8.533333 14.933333 12.8 25.6 12.8s19.2-4.266667 25.6-12.8l234.666666-320c6.4-10.666667 8.533333-23.466667 2.133334-34.133334-6.4-10.666667-17.066667-17.066667-27.733334-17.066666h-119.466666C588.8 123.733333 448 0 277.333333 0c-32 0-64 4.266667-93.866666 12.8-14.933333 4.266667-23.466667 17.066667-23.466667 29.866667 0 14.933333 8.533333 27.733333 23.466667 32z m360.533333 236.8c0 17.066667 14.933333 32 32 32h85.333333l-170.666666 234.666666-170.666667-234.666666h85.333333c17.066667 0 32-14.933333 32-32 0-98.133333-49.066667-187.733333-128-245.333334 132.266667 14.933333 234.666667 119.466667 234.666667 245.333334z" fill="#1FD5AE" p-id="1237"></path></svg>