<?xml version="1.0" encoding="UTF-8"?>
<svg width="20px" height="20px" viewBox="0 0 20 20" version="1.1" xmlns="http://www.w3.org/2000/svg" xmlns:xlink="http://www.w3.org/1999/xlink">
    <title>inbound</title>
    <g id="background-management-system-3" stroke="none" stroke-width="1" fill="none" fill-rule="evenodd">
        <g id="Peers" transform="translate(-959.000000, -342.000000)" fill="#B82F2F" fill-rule="nonzero">
            <path d="M972,342 C973.656854,342 975,343.343146 975,345 L975,346 L973,346 L973,345 C973,344.487164 972.61396,344.064493 972.116621,344.006728 L972,344 L962,344 C961.487164,344 961.064493,344.38604 961.006728,344.883379 L961,345 L961,359 C961,359.512836 961.38604,359.935507 961.883379,359.993272 L962,360 L972,360 C972.512836,360 972.935507,359.61396 972.993272,359.116621 L973,359 L973,358 L975,358 L975,359 C975,360.656854 973.656854,362 972,362 L962,362 C960.343146,362 959,360.656854 959,359 L959,345 C959,343.343146 960.343146,342 962,342 L972,342 Z M970.5,349 L968.5,351 L979,351 L979,353 L968.5,353 L970.5,355 L968,355 L965,352 L968,349 L970.5,349 Z" id="inbound"></path>
        </g>
    </g>
</svg>