<?xml version="1.0" encoding="UTF-8"?>
<svg width="16px" height="16px" viewBox="0 0 16 16" version="1.1" xmlns="http://www.w3.org/2000/svg" xmlns:xlink="http://www.w3.org/1999/xlink">
    <title>information</title>
    <g id="background-management-system-3" stroke="none" stroke-width="1" fill="none" fill-rule="evenodd">
        <g id="Files" transform="translate(-198.000000, -369.000000)" fill="#1FD5AE" fill-rule="nonzero">
            <path d="M211,369 C212.656854,369 214,370.343146 214,372 L214,382 C214,383.656854 212.656854,385 211,385 L201,385 C199.343146,385 198,383.656854 198,382 L198,372 C198,370.343146 199.343146,369 201,369 L211,369 Z M211,371 L201,371 C200.487164,371 200.064493,371.38604 200.006728,371.883379 L200,372 L200,382 C200,382.512836 200.38604,382.935507 200.883379,382.993272 L201,383 L211,383 C211.512836,383 211.935507,382.61396 211.993272,382.116621 L212,382 L212,372 C212,371.487164 211.61396,371.064493 211.116621,371.006728 L211,371 Z M207,377 L207,381 L205,381 L205,377 L207,377 Z M207,373 L207,375 L205,375 L205,373 L207,373 Z" id="information"></path>
        </g>
    </g>
</svg>