<?xml version="1.0" encoding="UTF-8"?>
<svg width="20px" height="20px" viewBox="0 0 20 20" version="1.1" xmlns="http://www.w3.org/2000/svg" xmlns:xlink="http://www.w3.org/1999/xlink">
    <title>info</title>
    <g id="controls" stroke="none" stroke-width="1" fill="none" fill-rule="evenodd">
        <g id="bottom-bar" transform="translate(-20.000000, -14.000000)" fill="#1FD5AE" fill-rule="nonzero">
            <path d="M37,14 C38.6568542,14 40,15.3431458 40,17 L40,31 C40,32.6568542 38.6568542,34 37,34 L23,34 C21.3431458,34 20,32.6568542 20,31 L20,17 C20,15.3431458 21.3431458,14 23,14 L37,14 Z M37,16 L23,16 C22.4871642,16 22.0644928,16.3860402 22.0067277,16.8833789 L22,17 L22,31 C22,31.5128358 22.3860402,31.9355072 22.8833789,31.9932723 L23,32 L37,32 C37.5128358,32 37.9355072,31.6139598 37.9932723,31.1166211 L38,31 L38,17 C38,16.4871642 37.6139598,16.0644928 37.1166211,16.0067277 L37,16 Z M31,23 L31,29 L29,29 L29,23 L31,23 Z M31,19 L31,21 L29,21 L29,19 L31,19 Z" id="info"></path>
        </g>
    </g>
</svg>