<?xml version="1.0" encoding="UTF-8"?>
<svg width="36px" height="40px" viewBox="0 0 36 40" version="1.1" xmlns="http://www.w3.org/2000/svg" xmlns:xlink="http://www.w3.org/1999/xlink">
    <title>ipfs</title>
    <g id="background-management-system-3" stroke="none" stroke-width="1" fill="none" fill-rule="evenodd">
        <g id="Files" transform="translate(-1057.000000, -114.000000)" fill="#1FD5AE" fill-rule="nonzero">
            <g id="group-2" transform="translate(1013.000000, 114.000000)">
                <path d="M62,0 L80,10 L80,30 L62,40 L44,30 L44,10 L62,0 Z M48,14.42 L48,25 C49.6568542,25 51,26.3431458 51,28 C51,28.4188851 50.9141492,28.8177188 50.7590829,29.1798655 L60,34.313 L59.9998796,23.4648015 C58.8043432,22.7731656 58,21.480515 58,20 L58.001,20.046 L48,14.42 Z M76,14.419 L65.9997482,20.0453546 C65.9835151,21.5064793 65.1838783,22.779528 64.0011092,23.4642293 L64,34.313 L73.2409171,29.1798655 C73.0858508,28.8177188 73,28.4188851 73,28 C73,26.3431458 74.3431458,25 76,25 L76,25 L76,14.419 Z M64.3417205,5.87536626 C63.7919179,6.56100321 62.9472256,7 62,7 C61.0532261,7 60.2088877,6.5614218 59.6590663,5.87634697 L50.257,11.099 L59.9609592,16.5580086 C60.5580424,16.2035326 61.2552524,16 62,16 C62.7447476,16 63.4419576,16.2035326 64.0390408,16.5580086 L73.743,11.099 Z" id="ipfs"></path>
            </g>
        </g>
    </g>
</svg>