<?xml version="1.0" standalone="no"?><!DOCTYPE svg PUBLIC "-//W3C//DTD SVG 1.1//EN" "http://www.w3.org/Graphics/SVG/1.1/DTD/svg11.dtd"><svg t="1659691689484" class="icon" viewBox="0 0 1024 1024" version="1.1" xmlns="http://www.w3.org/2000/svg" p-id="1118" xmlns:xlink="http://www.w3.org/1999/xlink" width="16" height="16"><defs><style type="text/css">@font-face { font-family: feedback-iconfont; src: url("//at.alicdn.com/t/font_1031158_u69w8yhxdu.woff2?t=1630033759944") format("woff2"), url("//at.alicdn.com/t/font_1031158_u69w8yhxdu.woff?t=1630033759944") format("woff"), url("//at.alicdn.com/t/font_1031158_u69w8yhxdu.ttf?t=1630033759944") format("truetype"); }
</style></defs><path d="M269.5 783.2c0 12-2.3 23-6.8 33.1-4.5 10.1-11.3 18.9-20.2 26.3-9 7.4-20.1 13.1-33.5 17.2-13.4 4.1-28.9 6.2-46.5 6.2h-25v73.8H87.8V710.1h76.7c17 0 32 1.6 45 4.8 13 3.2 24 7.9 32.9 14.2 8.9 6.2 15.6 13.9 20.2 22.9 4.6 9.1 6.9 19.5 6.9 31.2z m-51.7 3c0-6.1-1.1-11.6-3.3-16.6-2.2-5-5.5-9.2-10-12.7s-10.1-6.2-16.9-8.1c-6.8-1.9-14.9-2.8-24.2-2.8h-25.9v84.2H165c8.5 0 16.1-1 22.6-3.1 6.5-2 12.1-5 16.5-8.9 4.5-3.9 7.9-8.5 10.2-13.9 2.4-5.4 3.5-11.4 3.5-18.1zM456.7 939.8l-14.4-45.4h-91.4l-14.8 45.4h-48.9l77.6-229.7h68.9l77.6 229.7h-54.6z m-59.5-187.5l-34.5 106.9h68.5l-34-106.9zM650.1 746.1v193.7h-50.5V746.1h-71.7v-36h194v36h-71.8zM894.9 939.8v-100h-89v100h-49.3V710.1H806v92.3h89v-92.3h49.3v229.7h-49.4z" p-id="1119" fill="#1FD5AE"></path><path d="M128 635c-32.5 0-58.9-26.4-58.9-58.9s26.4-58.9 58.9-58.9 59 26.4 59 58.8-26.5 59-59 59z m0-97.9c-21.5 0-38.9 17.5-38.9 38.9s17.5 39 38.9 39 39-17.5 39-39-17.5-38.9-39-38.9z" p-id="1120" fill="#1FD5AE"></path><path d="M896.2 122.7c-32.4 0-58.7-26.4-58.7-58.7s26.4-58.7 58.7-58.7 58.7 26.4 58.7 58.7-26.3 58.7-58.7 58.7z m0-97.5c-21.4 0-38.7 17.4-38.7 38.7s17.4 38.7 38.7 38.7 38.7-17.4 38.7-38.7-17.4-38.7-38.7-38.7z" p-id="1121" fill="#1FD5AE"></path><path d="M218.3 475.5l-28.4-9.6c33.2-98.1 87.3-152.3 165.3-165.6 66.7-11.4 139.5 8.6 209.8 27.9 79.3 21.8 154.2 42.3 199.1 8.9 33.6-24.9 50.9-79.3 53.1-166.4l30 0.8c-1.3 49.9-7.3 89.5-18.4 121.1-10.8 30.8-26.1 53.2-46.9 68.6-56.7 42.1-138.4 19.7-225-4.1-67.2-18.4-136.7-37.5-196.8-27.2-67 11.4-112.1 57.7-141.8 145.6z" p-id="1122" fill="#1FD5AE"></path><path d="M235.6 471L192 512l-13.7-58.2zM861.9 179.9L832.2 128l-30.1 51.7z" p-id="1123" fill="#1FD5AE"></path></svg>