<?xml version="1.0" encoding="UTF-8"?>
<svg width="30px" height="32px" viewBox="0 0 30 32" version="1.1" xmlns="http://www.w3.org/2000/svg" xmlns:xlink="http://www.w3.org/1999/xlink">
    <title>logo</title>
    <g id="controls" stroke="none" stroke-width="1" fill="none" fill-rule="evenodd">
        <g id="nav-bar" transform="translate(-20.000000, -14.000000)" fill="#1FD5AE">
            <path d="M33.5483871,14 C38.2062923,14 41.6205673,16.3125012 41.9148576,16.5180569 C41.6212366,16.3357433 38.6129032,14.513369 34.7311828,14.513369 C26.6308244,14.513369 22.688172,21.426738 22.688172,27.5187166 C22.688172,37.8545455 31.1469534,44.4256684 38.2437276,44.4256684 C47.070619,44.4256684 49.5509895,36.5138987 49.9412646,35.0170774 L49.957,34.954 L49.9060925,35.1679928 C47.9000195,43.2171008 41.8711533,45.9143831 36.8377366,45.9979832 L36.5949821,46 C27.3476703,46 20,37.3069519 20,28.3743316 C20,18.6887701 27.562724,14 33.5483871,14 Z M42.3297491,19.8524064 C43.5966308,19.8524064 44.6236559,20.8330781 44.6236559,22.0427807 C44.6236559,23.2524834 43.5966308,24.2331551 42.3297491,24.2331551 L42.3297491,24.2331551 L34.2293907,24.2331551 L34.874552,27.2449198 L42.8315412,27.2449198 C44.0984229,27.2449198 45.125448,28.2255914 45.125448,29.4352941 C45.125448,30.6449968 44.0984229,31.6256684 42.8315412,31.6256684 L42.8315412,31.6256684 L35.8064516,31.6256684 L37.6702509,40.455615 L32.9390681,41.3454545 L28.9970609,22.5846246 C28.7000717,21.1714909 29.8318996,19.8524064 31.3412903,19.8524064 L31.3412903,19.8524064 Z" id="logo"></path>
        </g>
    </g>
</svg>