<?xml version="1.0" standalone="no"?><!DOCTYPE svg PUBLIC "-//W3C//DTD SVG 1.1//EN" "http://www.w3.org/Graphics/SVG/1.1/DTD/svg11.dtd"><svg t="1659605697551" class="icon" viewBox="0 0 1024 1024" version="1.1" xmlns="http://www.w3.org/2000/svg" p-id="1448" width="20" height="20" xmlns:xlink="http://www.w3.org/1999/xlink"><defs><style type="text/css">@font-face { font-family: feedback-iconfont; src: url("//at.alicdn.com/t/font_1031158_u69w8yhxdu.woff2?t=1630033759944") format("woff2"), url("//at.alicdn.com/t/font_1031158_u69w8yhxdu.woff?t=1630033759944") format("woff"), url("//at.alicdn.com/t/font_1031158_u69w8yhxdu.ttf?t=1630033759944") format("truetype"); }
</style></defs><path d="M768.64 731.946667a42.666667 42.666667 0 1 1 0 85.333333h-512a42.666667 42.666667 0 0 1 0-85.333333h512zM539.349333 256l120.661334 120.661333L358.4 678.4l-119.466667 23.893333A21.333333 21.333333 0 0 1 213.333333 681.045333l0.426667-3.84 23.893333-119.466666L539.306667 256z m181.034667-60.330667a85.333333 85.333333 0 0 1 0 120.661334l-30.208 30.165333-120.661333-120.661333 30.165333-30.165334a85.333333 85.333333 0 0 1 120.704 0z" fill="#1FD5AE" p-id="1449"></path></svg>