<?xml version="1.0" encoding="UTF-8"?>
<svg width="26px" height="6px" viewBox="0 0 26 6" version="1.1" xmlns="http://www.w3.org/2000/svg" xmlns:xlink="http://www.w3.org/1999/xlink">
    <title>more</title>
    <g id="background-management-system-3" stroke="none" stroke-width="1" fill="none" fill-rule="evenodd">
        <g id="Files-H5" transform="translate(-317.000000, -353.000000)" fill="#1FD5AE">
            <path d="M320,359 C321.656854,359 323,357.656854 323,356 C323,354.343146 321.656854,353 320,353 C318.343146,353 317,354.343146 317,356 C317,357.656854 318.343146,359 320,359 Z M330,359 C331.656854,359 333,357.656854 333,356 C333,354.343146 331.656854,353 330,353 C328.343146,353 327,354.343146 327,356 C327,357.656854 328.343146,359 330,359 Z M340,359 C341.656854,359 343,357.656854 343,356 C343,354.343146 341.656854,353 340,353 C338.343146,353 337,354.343146 337,356 C337,357.656854 338.343146,359 340,359 Z" id="more"></path>
        </g>
    </g>
</svg>