<?xml version="1.0" standalone="no"?><!DOCTYPE svg PUBLIC "-//W3C//DTD SVG 1.1//EN" "http://www.w3.org/Graphics/SVG/1.1/DTD/svg11.dtd"><svg t="1659695527773" class="icon" viewBox="0 0 1024 1024" version="1.1" xmlns="http://www.w3.org/2000/svg" p-id="2571" xmlns:xlink="http://www.w3.org/1999/xlink" width="16" height="16"><defs><style type="text/css">@font-face { font-family: feedback-iconfont; src: url("//at.alicdn.com/t/font_1031158_u69w8yhxdu.woff2?t=1630033759944") format("woff2"), url("//at.alicdn.com/t/font_1031158_u69w8yhxdu.woff?t=1630033759944") format("woff"), url("//at.alicdn.com/t/font_1031158_u69w8yhxdu.ttf?t=1630033759944") format("truetype"); }
</style></defs><path d="M395.41 130.54c25.71 0 47.02 9.38 62.33 23.29l6.19 6.22 77.06 67.26h329.9c48.59 0 86.94 35.3 91.28 81.81l0.41 8.85v485.71c0 46.2-36.56 84.46-82.89 88.8l-8.8 0.41H153.27c-47.45 0-86.8-35.54-91.27-80.65l-0.42-8.56V219.75c0-47.56 35.24-84.62 82.66-88.82l9.03-0.4h242.14z m-243.28 61.75l1.14 1.14c-13.28 0-24.4 9.38-26.71 21.61l-0.44 4.71v583.92c0 12.85 9.65 23.66 22.28 25.9l4.87 0.43h717.61c11.84 0 24.08-8.96 26.66-21.48l0.49-4.85V317.96c0-15.17-9.32-25.31-22.18-27.38l-4.97-0.39-352.36-0.62-99.65-85.32c-4.94-4.8-10.18-7.93-16.77-8.99l-5.21-0.4-244.76-2.57zM511.8 396.72c15.77 0 29 11.16 31.75 25.81l0.52 5.64-2.56 112.98h118.84c17.74 0 32.27 14.13 32.27 31.44 0 15.39-11.48 28.27-26.49 30.94l-5.78 0.51-116.28-2.56v115.54c0 17.32-14.53 31.44-32.27 31.44-15.77 0-29-11.16-31.75-25.81l-0.52-5.64 2.56-112.98H363.25c-17.74 0-32.27-14.13-32.27-31.44 0-15.39 11.48-28.27 26.49-30.94l5.78-0.51 116.28 2.56V428.17c0-17.32 14.53-31.45 32.27-31.45z" fill="#1FD5AE" p-id="2572"></path></svg>