<?xml version="1.0" encoding="UTF-8"?>
<svg width="20px" height="20px" viewBox="0 0 20 20" version="1.1" xmlns="http://www.w3.org/2000/svg" xmlns:xlink="http://www.w3.org/1999/xlink">
    <title>outbound</title>
    <g id="background-management-system-3" stroke="none" stroke-width="1" fill="none" fill-rule="evenodd">
        <g id="Peers" transform="translate(-959.000000, -298.000000)" fill="#1FD557" fill-rule="nonzero">
            <path d="M972,298 C973.656854,298 975,299.343146 975,301 L975,302 L973,302 L973,301 C973,300.487164 972.61396,300.064493 972.116621,300.006728 L972,300 L962,300 C961.487164,300 961.064493,300.38604 961.006728,300.883379 L961,301 L961,315 C961,315.512836 961.38604,315.935507 961.883379,315.993272 L962,316 L972,316 C972.512836,316 972.935507,315.61396 972.993272,315.116621 L973,315 L973,314 L975,314 L975,315 C975,316.656854 973.656854,318 972,318 L962,318 C960.343146,318 959,316.656854 959,315 L959,301 C959,299.343146 960.343146,298 962,298 L972,298 Z M976,305 L979,308 L976,311 L973.5,311 L975.5,309 L965,309 L965,307 L975.5,307 L973.5,305 L976,305 Z" id="outbound"></path>
        </g>
    </g>
</svg>