<?xml version="1.0" encoding="UTF-8"?>
<svg width="20px" height="20px" viewBox="0 0 20 20" version="1.1" xmlns="http://www.w3.org/2000/svg" xmlns:xlink="http://www.w3.org/1999/xlink">
    <title>peers</title>
    <g id="controls" stroke="none" stroke-width="1" fill="none" fill-rule="evenodd">
        <g id="bottom-bar" transform="translate(-1063.000000, -14.000000)" fill="#1FD5AE" fill-rule="nonzero">
            <path d="M1076,14 C1077.65685,14 1079,15.3431458 1079,17 L1079,18 L1080,18 C1081.65685,18 1083,19.3431458 1083,21 L1083,31 C1083,32.6568542 1081.65685,34 1080,34 L1070,34 C1068.34315,34 1067,32.6568542 1067,31 L1067,30 L1066,30 C1064.34315,30 1063,28.6568542 1063,27 L1063,17 C1063,15.3431458 1064.34315,14 1066,14 L1076,14 Z M1076,16 L1066,16 C1065.48716,16 1065.06449,16.3860402 1065.00673,16.8833789 L1065,17 L1065,27 C1065,27.5128358 1065.38604,27.9355072 1065.88338,27.9932723 L1066,28 L1076,28 C1076.51284,28 1076.93551,27.6139598 1076.99327,27.1166211 L1077,27 L1077,22 L1079,22 L1079,27 C1079,28.6568542 1077.65685,30 1076,30 L1069,30 L1069,31 C1069,31.5128358 1069.38604,31.9355072 1069.88338,31.9932723 L1070,32 L1080,32 C1080.51284,32 1080.93551,31.6139598 1080.99327,31.1166211 L1081,31 L1081,21 C1081,20.4871642 1080.61396,20.0644928 1080.11662,20.0067277 L1080,20 L1070,20 C1069.48716,20 1069.06449,20.3860402 1069.00673,20.8833789 L1069,21 L1069,26 L1067,26 L1067,21 C1067,19.3431458 1068.34315,18 1070,18 L1077,18 L1077,17 C1077,16.4871642 1076.61396,16.0644928 1076.11662,16.0067277 L1076,16 Z" id="peers"></path>
        </g>
    </g>
</svg>