<?xml version="1.0" encoding="UTF-8"?>
<svg width="16px" height="16px" viewBox="0 0 16 16" version="1.1" xmlns="http://www.w3.org/2000/svg" xmlns:xlink="http://www.w3.org/1999/xlink">
    <title>search</title>
    <g id="background-management-system-3" stroke="none" stroke-width="1" fill="none" fill-rule="evenodd">
        <g id="home" transform="translate(-952.000000, -299.000000)" fill="#FFFFFF" fill-rule="nonzero">
            <g id="group-3" transform="translate(388.000000, 285.000000)">
                <path d="M571,14 C574.865993,14 578,17.1340068 578,21 C578,22.5763766 577.478928,24.0310504 576.599629,25.2011767 C576.603813,25.2027022 576.608368,25.2061812 576.612899,25.2097046 L576.707107,25.2928932 L579.707107,28.2928932 C580.097631,28.6834175 580.097631,29.3165825 579.707107,29.7071068 C579.346623,30.0675907 578.779392,30.0953203 578.387101,29.7902954 L578.292893,29.7071068 L575.292893,26.7071068 C575.258689,26.6729024 575.22748,26.6368368 575.199268,26.5992358 C574.03105,27.478928 572.576377,28 571,28 C567.134007,28 564,24.8659932 564,21 C564,17.1340068 567.134007,14 571,14 Z M571,16 C568.238576,16 566,18.2385763 566,21 C566,23.7614237 568.238576,26 571,26 C573.761424,26 576,23.7614237 576,21 C576,18.2385763 573.761424,16 571,16 Z" id="search"></path>
            </g>
        </g>
    </g>
</svg>