<?xml version="1.0" standalone="no"?><!DOCTYPE svg PUBLIC "-//W3C//DTD SVG 1.1//EN" "http://www.w3.org/Graphics/SVG/1.1/DTD/svg11.dtd"><svg t="1659695453370" class="icon" viewBox="0 0 1024 1024" version="1.1" xmlns="http://www.w3.org/2000/svg" p-id="2391" xmlns:xlink="http://www.w3.org/1999/xlink" width="16" height="16"><defs><style type="text/css">@font-face { font-family: feedback-iconfont; src: url("//at.alicdn.com/t/font_1031158_u69w8yhxdu.woff2?t=1630033759944") format("woff2"), url("//at.alicdn.com/t/font_1031158_u69w8yhxdu.woff?t=1630033759944") format("woff"), url("//at.alicdn.com/t/font_1031158_u69w8yhxdu.ttf?t=1630033759944") format("truetype"); }
</style></defs><path d="M696.173714 1.536a73.142857 73.142857 0 0 1 73.142857 73.142857v219.428572a73.142857 73.142857 0 0 1-73.142857 73.142857H556.178286V468.114286L768 468.114286a117.028571 117.028571 0 0 1 116.516571 106.349714L885.028571 585.142857v73.142857h65.828572a73.142857 73.142857 0 0 1 73.142857 73.142857v219.428572a73.142857 73.142857 0 0 1-73.142857 73.142857h-219.428572a73.142857 73.142857 0 0 1-73.142857-73.142857v-219.428572a73.142857 73.142857 0 0 1 73.142857-73.142857h65.828572V585.142857a29.257143 29.257143 0 0 0-23.405714-28.672L768 555.885714h-512a29.257143 29.257143 0 0 0-28.672 23.405715L226.742857 585.142857l-0.073143 73.142857H292.571429a73.142857 73.142857 0 0 1 73.142857 73.142857v219.428572a73.142857 73.142857 0 0 1-73.142857 73.142857H73.142857a73.142857 73.142857 0 0 1-73.142857-73.142857v-219.428572a73.142857 73.142857 0 0 1 73.142857-73.142857h65.828572V585.142857a117.028571 117.028571 0 0 1 106.349714-116.516571L256 468.114286h212.406857V367.177143H330.459429a73.142857 73.142857 0 0 1-73.142858-73.142857v-219.428572a73.142857 73.142857 0 0 1 73.142858-73.142857h365.714285zM277.942857 746.057143H87.771429v190.171428h190.171428v-190.171428z m658.285714 0h-190.171428v190.171428h190.171428v-190.171428zM681.545143 89.307429h-336.457143v190.171428h336.457143v-190.171428z" p-id="2392" fill="#1FD5AE"></path></svg>