<?xml version="1.0" standalone="no"?><!DOCTYPE svg PUBLIC "-//W3C//DTD SVG 1.1//EN" "http://www.w3.org/Graphics/SVG/1.1/DTD/svg11.dtd"><svg t="1658822105990" class="icon" viewBox="0 0 1024 1024" version="1.1" xmlns="http://www.w3.org/2000/svg" p-id="8065" xmlns:xlink="http://www.w3.org/1999/xlink" width="20" height="20"><defs><style type="text/css">@font-face { font-family: feedback-iconfont; src: url("//at.alicdn.com/t/font_1031158_u69w8yhxdu.woff2?t=1630033759944") format("woff2"), url("//at.alicdn.com/t/font_1031158_u69w8yhxdu.woff?t=1630033759944") format("woff"), url("//at.alicdn.com/t/font_1031158_u69w8yhxdu.ttf?t=1630033759944") format("truetype"); }
</style></defs><g fill="none"><path d="M960 544h-64a32 32 0 0 1 0-64h64a32 32 0 0 1 0 64z m-150.4-283.904A32.32 32.32 0 0 1 763.904 214.4L809.6 168.672A32.32 32.32 0 0 1 855.328 214.4zM512 800a288 288 0 1 1 288-288 288 288 0 0 1-288 288z m0-512a224 224 0 1 0 224 224 224 224 0 0 0-224-224z m0-128a32 32 0 0 1-32-32V64a32 32 0 0 1 64 0v64a32 32 0 0 1-32 32zM217.856 263.104L172.576 217.856a32 32 0 0 1 45.28-45.28l45.248 45.28a32 32 0 0 1-45.248 45.248z m-2.464 499.808a32.32 32.32 0 1 1 45.696 45.696L215.392 854.4A32.32 32.32 0 1 1 169.6 808.608zM128 544H64a32 32 0 0 1 0-64h64a32 32 0 0 1 0 64z m384 320a32 32 0 0 1 32 32v64a32 32 0 0 1-64 0v-64a32 32 0 0 1 32-32z m294.144-103.104l45.248 45.248a32 32 0 0 1-45.248 45.248l-45.248-45.248a32 32 0 0 1 45.248-45.248z" p-id="8066"></path></g></svg>