<?xml version="1.0" encoding="UTF-8"?>
<svg width="20px" height="20px" viewBox="0 0 20 20" version="1.1" xmlns="http://www.w3.org/2000/svg" xmlns:xlink="http://www.w3.org/1999/xlink">
    <title>unpin</title>
    <g id="background-management-system-3" stroke="none" stroke-width="1" fill="none" fill-rule="evenodd">
        <g id="Files" transform="translate(-684.000000, -348.000000)" fill="#1FD5AE" fill-rule="nonzero">
            <path d="M696,348 L704,356 L698.920063,361.081816 C699.352756,363.085696 699.100275,365.260869 698.16262,367.607336 L698,368 L691.75,361.75 L685.5,368 L684,368 L684,366.5 L690.25,360.25 L684,354 C686.497708,352.929554 688.804441,352.623011 690.920197,353.080372 L696,348 Z M696,350.829 L691.563461,355.265621 L690.49762,355.035219 C689.70573,354.864037 688.867802,354.829052 687.979896,354.935402 L687.79,354.961 L697.038,364.209 L697.063037,364.033094 C697.157731,363.252533 697.143254,362.51063 697.023082,361.804425 L696.965118,361.503942 L696.735091,360.438646 L701.171,356 L696,350.829 Z" id="unpin"></path>
        </g>
    </g>
</svg>